<?xml version="1.0" standalone="no"?>
<!DOCTYPE svg PUBLIC "-//W3C//DTD SVG 20010904//EN"
 "http://www.w3.org/TR/2001/REC-SVG-20010904/DTD/svg10.dtd">
<svg version="1.0" xmlns="http://www.w3.org/2000/svg"
 width="2000.000000pt" height="1500.000000pt" viewBox="0 0 2000.000000 1500.000000"
 preserveAspectRatio="xMidYMid meet">

<g transform="translate(0.000000,1500.000000) scale(0.100000,-0.100000)"
fill="#000000" stroke="none">
<path d="M0 7500 l0 -7500 10000 0 10000 0 0 7500 0 7500 -10000 0 -10000 0 0
-7500z m10888 3420 c509 -301 854 -794 968 -1385 25 -126 27 -162 27 -365 1
-187 -3 -244 -21 -340 -161 -868 -802 -1507 -1667 -1661 -168 -30 -482 -33
-640 -5 -153 26 -317 71 -439 122 -61 25 -122 50 -136 56 -23 9 -31 4 -91 -55
-108 -106 -235 -155 -374 -143 -234 19 -419 190 -455 420 -50 317 238 605 554
556 298 -45 487 -341 401 -627 -8 -26 -11 -51 -7 -54 18 -18 210 -92 317 -122
168 -49 286 -67 465 -74 1093 -40 2000 831 2000 1922 0 511 -182 967 -540
1349 -112 120 -316 275 -471 357 -62 33 -77 56 -59 89 18 34 59 24 168 -40z
m-887 -440 c5 -8 20 -42 35 -75 35 -76 138 -181 214 -218 172 -83 362 -73 523
26 46 28 48 28 73 12 20 -13 25 -23 21 -43 -2 -15 -10 -60 -18 -99 -49 -272
191 -542 483 -543 36 0 50 -5 62 -21 20 -29 10 -49 -53 -100 -146 -118 -206
-313 -152 -488 28 -89 61 -139 145 -218 42 -39 76 -76 76 -82 0 -6 -9 -20 -20
-31 -15 -15 -33 -20 -78 -20 -246 0 -472 -226 -472 -472 0 -22 8 -72 17 -110
26 -107 -8 -135 -95 -80 -165 106 -396 100 -567 -13 -70 -47 -136 -128 -171
-212 -43 -100 -78 -97 -129 13 -83 180 -258 288 -465 286 -99 0 -190 -25 -263
-72 -54 -34 -78 -37 -101 -14 -19 19 -19 17 -1 79 23 74 21 193 -5 271 -61
183 -253 323 -445 324 -88 0 -123 48 -67 92 163 133 233 291 204 461 -19 109
-54 171 -149 265 -72 71 -84 87 -79 107 7 27 17 31 113 40 176 17 333 126 406
282 40 86 49 215 23 307 -18 59 -12 88 19 100 9 3 47 -11 88 -33 88 -48 173
-71 264 -71 194 0 375 111 454 277 17 37 36 74 42 81 13 17 58 12 68 -8z
m-2878 -3921 c53 -14 105 -63 117 -110 24 -88 -43 -185 -148 -215 -70 -21
-176 -15 -221 12 -85 50 -96 170 -23 247 63 66 176 94 275 66z m-2403 -305 l0
-216 33 28 c44 37 123 71 201 85 78 15 173 2 244 -32 103 -50 186 -170 211
-304 15 -79 14 -120 -4 -190 -60 -234 -255 -384 -538 -417 -101 -11 -323 -1
-497 24 l-80 11 0 614 0 613 215 0 215 0 0 -216z m1280 10 l0 -206 37 32 c20
18 62 44 92 58 47 22 71 26 151 26 83 1 102 -2 151 -25 105 -49 175 -145 199
-269 5 -29 10 -187 10 -351 l0 -299 -219 0 -219 0 -5 248 c-5 280 -15 332 -72
389 -38 38 -63 41 -96 14 l-24 -19 -3 -316 -3 -316 -219 0 -220 0 0 620 0 620
220 0 220 0 0 -206z m-2510 144 c44 -23 50 -33 342 -553 163 -291 309 -551
323 -577 l26 -48 -299 0 -300 0 -22 60 -22 60 -158 0 -158 0 -19 -57 -20 -58
-262 -3 -263 -2 50 92 c27 51 158 302 292 558 134 256 255 478 269 494 54 59
143 73 221 34z m8869 3 c20 -11 42 -25 48 -33 9 -11 595 -1055 632 -1125 l12
-23 -299 0 -300 0 -22 60 -22 60 -158 0 -158 0 -19 -57 -20 -58 -256 -3 c-147
-1 -257 1 -257 7 0 18 579 1113 601 1138 51 54 148 69 218 34z m-4294 -420 l0
-182 -52 -18 c-74 -25 -132 -67 -149 -106 -11 -26 -14 -86 -14 -245 l0 -210
-220 0 -220 0 0 460 0 460 220 0 220 0 0 -45 c0 -25 3 -45 6 -45 3 0 15 11 25
24 32 41 145 101 174 92 6 -2 10 -72 10 -185z m749 150 c36 -18 79 -48 96 -69
l31 -37 54 58 53 58 118 -3 119 -3 3 -457 2 -458 -124 0 -123 0 -28 43 c-15
23 -38 56 -51 74 l-24 32 -42 -45 c-85 -92 -244 -144 -375 -124 -146 23 -257
104 -316 228 -29 61 -32 77 -35 187 -4 109 -1 128 22 199 75 223 263 361 478
353 62 -3 89 -10 142 -36z m1443 24 c61 -18 125 -63 155 -109 l22 -34 46 46
c24 25 74 59 110 76 57 27 76 31 150 31 134 0 223 -53 277 -163 l28 -57 3
-362 3 -363 -216 0 -215 0 0 278 c0 268 -1 279 -22 322 -38 75 -101 85 -119
19 -4 -13 -7 -158 -8 -322 l-1 -297 -207 2 -208 3 -5 285 c-5 264 -6 288 -26
320 -35 61 -91 72 -113 24 -7 -17 -11 -126 -11 -329 l0 -305 -220 0 -220 0 0
460 0 460 120 0 120 0 51 -70 c28 -38 53 -70 55 -70 2 0 20 17 38 38 93 102
282 156 413 117z m3558 -174 l0 -182 -52 -18 c-74 -25 -132 -67 -149 -106 -11
-26 -14 -86 -14 -245 l0 -210 -220 0 -220 0 0 460 0 460 220 0 220 0 0 -46 0
-46 39 35 c54 49 137 90 166 83 6 -2 10 -72 10 -185z m798 165 c139 -44 244
-133 305 -255 37 -75 37 -75 37 -205 0 -126 -1 -133 -32 -198 -153 -324 -635
-394 -884 -129 -98 105 -135 207 -127 357 4 76 11 104 36 159 18 37 46 85 64
108 64 81 186 152 303 177 57 13 241 4 298 -14z m1141 4 c104 -26 169 -63 242
-135 186 -184 179 -503 -15 -677 -212 -191 -550 -189 -756 4 -193 180 -202
477 -20 667 132 139 346 193 549 141z m1349 0 c115 -36 199 -132 226 -258 48
-226 -88 -497 -300 -597 -85 -40 -158 -60 -252 -70 l-67 -7 0 -119 0 -119
-217 2 -218 3 0 575 0 575 120 3 120 2 49 -70 c27 -38 51 -70 54 -70 2 0 27
21 55 46 124 111 283 149 430 104z m-9873 -470 l0 -460 -210 0 -210 0 0 460 0
460 210 0 210 0 0 -460z m675 -1391 l140 -148 3 144 c2 137 4 145 22 145 19 0
20 -8 20 -202 l0 -202 -144 149 -145 150 0 -142 -1 -143 -25 0 -25 0 0 200 c0
110 3 200 8 199 4 0 70 -68 147 -150z m815 -39 c45 -102 84 -191 87 -198 4
-10 -2 -13 -22 -10 -22 2 -31 13 -50 58 l-23 55 -79 3 -80 3 -24 -61 c-19 -49
-28 -60 -46 -60 -13 0 -23 4 -23 9 0 5 29 73 64 152 35 79 73 166 85 193 12
27 23 47 25 45 2 -2 41 -87 86 -189z m-4028 170 c52 -15 78 -52 78 -109 -1
-73 -36 -104 -124 -111 l-61 -5 -3 -77 c-3 -70 -5 -78 -22 -78 -19 0 -20 8
-20 195 l0 195 58 0 c31 0 74 -5 94 -10z m678 -15 c0 -25 -1 -25 -85 -25 l-85
0 0 -55 0 -55 80 0 c73 0 80 -2 80 -20 0 -18 -7 -20 -80 -20 l-80 0 0 -75 0
-75 85 0 c78 0 85 -2 85 -20 0 -19 -7 -20 -110 -20 l-110 0 0 195 0 195 110 0
110 0 0 -25z m587 -1 c32 -24 51 -72 45 -115 -4 -28 -24 -53 -66 -83 -18 -12
-16 -17 38 -89 l56 -77 -29 0 c-25 0 -37 11 -85 80 -38 54 -63 80 -76 80 -18
0 -20 -7 -20 -80 0 -79 0 -80 -25 -80 l-25 0 0 196 0 196 79 -3 c61 -3 86 -9
108 -25z m631 -10 c35 -35 35 -37 17 -50 -17 -13 -22 -12 -42 11 -47 50 -123
42 -123 -13 0 -36 19 -53 91 -85 66 -29 89 -57 89 -110 0 -49 -13 -73 -50 -92
-59 -31 -137 -13 -179 41 -25 32 -26 40 -4 48 11 5 26 -3 44 -23 46 -51 115
-54 137 -6 12 27 4 63 -19 81 -8 6 -34 19 -59 28 -101 39 -132 116 -71 177 25
25 37 29 81 29 46 0 56 -4 88 -36z m682 16 c110 -56 139 -214 57 -307 -39 -45
-82 -63 -146 -63 -119 0 -194 75 -194 195 0 85 33 140 108 179 42 22 127 20
175 -4z m1950 -155 l0 -175 75 0 c68 0 75 -2 75 -20 0 -19 -7 -20 -100 -20
l-100 0 0 195 0 195 25 0 25 0 0 -175z m1142 165 c52 -15 78 -52 78 -109 -1
-73 -36 -104 -124 -111 l-61 -5 -3 -77 c-3 -70 -5 -78 -22 -78 -19 0 -20 8
-20 195 l0 195 58 0 c31 0 74 -5 94 -10z m726 -9 c68 -35 102 -93 102 -176 0
-69 -26 -123 -76 -162 -31 -23 -49 -28 -108 -31 -64 -3 -75 -1 -114 25 -48 31
-92 107 -92 157 0 80 51 164 115 192 45 20 129 17 173 -5z m645 5 c43 -18 67
-46 73 -88 8 -45 -16 -93 -57 -113 -27 -15 -29 -18 -17 -35 7 -11 32 -46 56
-80 l43 -60 -28 0 c-24 0 -37 12 -83 78 -36 51 -63 78 -77 80 -22 3 -23 1 -23
-77 0 -80 0 -81 -25 -81 l-25 0 0 195 0 195 65 0 c36 0 80 -6 98 -14z m667
-11 c0 -23 -3 -25 -50 -25 l-50 0 0 -170 0 -170 -25 0 -25 0 0 170 0 170 -44
0 c-46 0 -62 11 -52 35 4 12 30 15 126 15 l120 0 0 -25z m560 0 c0 -24 -2 -25
-75 -25 l-75 0 0 -55 0 -55 75 0 c68 0 75 -2 75 -20 0 -18 -7 -20 -75 -20
l-75 0 0 -95 c0 -95 0 -95 -25 -95 l-25 0 0 195 0 195 100 0 100 0 0 -25z
m658 4 c26 -13 54 -38 70 -62 23 -34 27 -51 27 -112 0 -61 -4 -77 -28 -113
-35 -54 -90 -82 -162 -82 -72 0 -126 28 -162 82 -24 36 -28 52 -28 113 0 61 4
78 27 112 52 78 165 106 256 62z m530 -156 l2 -173 75 0 c68 0 75 -2 75 -20 0
-19 -7 -20 -100 -20 l-100 0 0 196 0 195 23 -3 c22 -3 22 -5 25 -175z m560
-20 l2 -193 -25 0 -25 0 0 196 0 195 23 -3 c22 -3 22 -4 25 -195z m689 161
c57 -47 77 -87 77 -158 -1 -87 -45 -158 -117 -185 -39 -15 -121 -14 -160 3
-108 45 -146 205 -71 303 41 54 88 74 166 70 57 -2 72 -7 105 -33z"/>
<path d="M8478 8020 c-63 -11 -145 -50 -192 -90 -214 -188 -166 -531 92 -653
61 -29 75 -32 167 -32 92 0 106 3 167 32 84 39 147 103 190 191 30 61 33 74
33 162 0 82 -4 103 -27 153 -37 79 -62 112 -119 157 -85 67 -206 98 -311 80z"/>
<path d="M9942 10299 c-32 -52 -126 -141 -184 -177 -150 -90 -338 -113 -503
-61 -33 10 -63 19 -67 19 -5 0 -8 -31 -8 -68 0 -207 -125 -403 -319 -500 -46
-23 -101 -45 -122 -48 -22 -4 -39 -8 -39 -11 0 -2 17 -27 39 -56 80 -108 112
-201 112 -333 0 -141 -34 -233 -139 -374 -12 -16 -7 -20 55 -39 96 -29 185
-85 257 -161 104 -111 156 -237 156 -382 0 -38 2 -68 3 -68 2 0 30 9 63 21 85
30 233 37 327 14 145 -34 295 -132 357 -234 14 -22 28 -41 32 -41 3 0 16 15
27 34 33 53 140 148 208 184 158 84 330 93 528 28 19 -7 20 -2 21 72 4 241
162 449 403 528 l79 27 -38 48 c-161 204 -156 504 12 695 17 19 29 36 27 37
-2 2 -26 9 -54 16 -98 24 -176 71 -260 156 -118 117 -169 236 -169 391 l1 71
-46 -17 c-250 -94 -563 0 -705 212 l-33 49 -21 -32z m207 -404 c255 -53 486
-244 596 -491 70 -157 89 -386 47 -546 -83 -309 -311 -538 -622 -624 -89 -25
-320 -26 -405 -2 -243 67 -412 193 -537 400 -130 213 -153 494 -62 737 53 140
175 298 299 386 203 144 438 192 684 140z"/>
<path d="M9834 9809 c-233 -39 -460 -214 -560 -432 -65 -143 -83 -348 -45
-499 68 -264 284 -481 547 -548 105 -27 263 -27 370 0 319 80 551 360 571 688
23 377 -235 709 -609 786 -82 17 -191 19 -274 5z"/>
<path d="M4848 5835 c-21 -8 -58 -28 -83 -45 l-45 -31 0 -139 0 -140 46 0 c58
0 104 22 148 71 58 64 80 115 81 190 0 52 -4 72 -19 88 -22 25 -71 27 -128 6z"/>
<path d="M3323 5748 c-29 -73 -55 -141 -59 -150 -6 -17 4 -18 111 -18 89 0
116 3 113 13 -3 6 -27 74 -53 150 -26 75 -51 137 -54 137 -4 0 -30 -60 -58
-132z"/>
<path d="M12242 5870 c-6 -14 -31 -79 -57 -145 -26 -66 -49 -126 -52 -132 -4
-10 22 -13 112 -13 116 0 116 0 109 23 -4 12 -28 83 -54 157 -43 121 -49 132
-58 110z"/>
<path d="M8765 5864 c-48 -24 -100 -81 -129 -139 -48 -99 -27 -215 39 -215 37
0 128 37 174 70 l41 30 0 129 c0 108 -3 130 -16 135 -28 11 -78 6 -109 -10z"/>
<path d="M14459 5861 c-113 -75 -193 -258 -144 -328 38 -54 116 -34 191 50
127 141 143 307 31 307 -20 0 -51 -12 -78 -29z"/>
<path d="M15629 5861 c-86 -54 -160 -173 -163 -262 -1 -54 19 -84 65 -94 59
-13 165 79 219 190 72 149 3 245 -121 166z"/>
<path d="M16808 5833 c-23 -21 -54 -58 -70 -82 -26 -42 -28 -52 -28 -148 0
-57 3 -103 8 -103 16 0 120 77 167 124 61 61 85 109 85 168 0 57 -21 78 -78
78 -34 0 -50 -7 -84 -37z"/>
<path d="M8606 4287 c-14 -32 -26 -62 -26 -67 0 -6 25 -10 55 -10 30 0 55 3
54 8 0 4 -13 34 -29 67 l-28 60 -26 -58z"/>
<path d="M4580 4320 l0 -70 50 0 c41 0 56 5 75 25 30 29 32 68 5 95 -15 15
-33 20 -75 20 l-55 0 0 -70z"/>
<path d="M5820 4325 l0 -75 49 0 c42 0 53 4 70 26 48 61 5 124 -84 124 l-35 0
0 -75z"/>
<path d="M7125 4386 c-128 -55 -120 -243 12 -287 136 -45 249 131 155 243 -45
53 -108 70 -167 44z"/>
<path d="M10250 4320 l0 -70 50 0 c41 0 56 5 75 25 30 29 32 68 5 95 -15 15
-33 20 -75 20 l-55 0 0 -70z"/>
<path d="M10933 4380 c-74 -38 -103 -132 -64 -209 24 -47 58 -70 113 -77 87
-11 158 57 158 150 0 118 -105 187 -207 136z"/>
<path d="M11620 4326 l0 -76 50 0 c61 0 90 24 90 73 0 46 -28 69 -90 75 l-50
5 0 -77z"/>
<path d="M13485 4393 c-127 -34 -144 -224 -25 -286 43 -22 111 -18 149 10 79
58 80 197 1 253 -29 20 -92 32 -125 23z"/>
<path d="M15225 4386 c-124 -54 -119 -237 8 -285 41 -16 65 -14 113 10 113 54
105 226 -13 275 -40 17 -69 17 -108 0z"/>
</g>
</svg>
